# xmcd CD database file
#
# Track frame offsets:
#	150
#	57033
#	100438
#	163788
#	214340
#	262158
#
# Disc length: 4121 seconds
#
# Revision: 1
# Processed by: cddbd v1.4PL0 Copyright (c) Steve Scherf et al.
# Submitted via: CDex 1.50Beta7
#
DISCID=58101706
DTITLE=George Benson - Witchcraft
DYEAR=1993
DGENRE=Jazz
TTITLE0=All Blues
TTITLE1=Witchcraft
TTITLE2=Love For Sale
TTITLE3=Lil' Darlin'
TTITLE4=There Will Never Be Another You
TTITLE5=Oleo
EXTD=YEAR: 1993
EXTT0=
EXTT1=
EXTT2=
EXTT3=
EXTT4=
EXTT5=
PLAYORDER=
